<?xml version="1.0" ?><!DOCTYPE svg  PUBLIC '-//W3C//DTD SVG 1.1//EN'  'http://www.w3.org/Graphics/SVG/1.1/DTD/svg11.dtd'><svg enable-background="new 0 0 91 91" height="91px" id="Layer_1" version="1.1" viewBox="0 0 91 91" width="91px" xml:space="preserve" xmlns="http://www.w3.org/2000/svg" xmlns:xlink="http://www.w3.org/1999/xlink"><g><rect height="3.4" width="29.596" x="31.651" y="45.648"/><rect height="3.4" width="29.596" x="31.651" y="35.402"/><rect height="3.4" width="5.101" x="31.651" y="55.766"/><rect height="3.4" width="5.361" x="39.433" y="55.766"/><rect height="3.4" width="5.1" x="47.475" y="55.766"/><path d="M24.199,74.494H63.88c3.595,0,6.52-2.924,6.52-6.519V21.775c0-0.938-0.761-1.7-1.7-1.7l-44.5-0.001   c-0.451,0-0.883,0.179-1.202,0.498s-0.498,0.751-0.498,1.202v51.021C22.499,73.732,23.26,74.494,24.199,74.494z M25.898,23.474   L67,23.475v44.5c0,1.72-1.4,3.118-3.12,3.118H25.898V23.474z"/></g></svg>