<?xml version="1.0" ?><!DOCTYPE svg  PUBLIC '-//W3C//DTD SVG 1.1//EN'  'http://www.w3.org/Graphics/SVG/1.1/DTD/svg11.dtd'><svg enable-background="new 0 0 24 24" height="24px" id="Layer_1" version="1.1" viewBox="0 0 24 24" width="24px" xml:space="preserve" xmlns="http://www.w3.org/2000/svg" xmlns:xlink="http://www.w3.org/1999/xlink"><path d="M23.7,15.5L18.4,12l5.3-3.5c0.4-0.3,0.4-0.7,0-0.9l-11-7.3c-0.4-0.3-1-0.3-1.4,0l-11,7.3c-0.4,0.3-0.4,0.7,0,0.9L5.6,12  l-5.3,3.5c-0.4,0.3-0.4,0.7,0,0.9l11,7.3c0.4,0.3,1,0.3,1.4,0l11-7.3C24.1,16.2,24.1,15.8,23.7,15.5z M2.7,8L12,1.9L21.2,8L12,14.2  L2.7,8z M12,22.2L2.7,16l4.4-2.9l4.1,2.7c0.4,0.3,1,0.3,1.4,0l4.1-2.7l4.4,2.9L12,22.2z"/></svg>