<?xml version="1.0" ?><svg style="enable-background:new 0 0 48 48;" version="1.1" viewBox="0 0 48 48" xml:space="preserve" xmlns="http://www.w3.org/2000/svg" xmlns:xlink="http://www.w3.org/1999/xlink"><g id="Icons"><g id="Icons_18_"><g><path d="M23.995,8.66c-8.47,0-15.34,6.87-15.34,15.3399c0,8.4701,6.87,15.3401,15.34,15.3401     c8.48,0,15.35-6.87,15.35-15.3401C39.345,15.53,32.475,8.66,23.995,8.66z M22.835,28.28h5.54c1.04,0,1.87,0.8399,1.87,1.87     c0,1.0299-0.83,1.8599-1.87,1.8599h-5.54c-2.8,0-5.08-2.27-5.08-5.08V17.85c0-1.0301,0.84-1.8601,1.86-1.8601     c1.04,0,1.87,0.83,1.87,1.8601v2.2099h6.89c1.04,0,1.87,0.8401,1.87,1.87c0,1.0301-0.83,1.8601-1.87,1.8601h-6.89v3.1399     C21.485,27.6799,22.085,28.28,22.835,28.28z" style="fill:#4AA0EC;"/></g></g></g></svg>