<?xml version="1.0" encoding="UTF-8"?><!DOCTYPE svg PUBLIC "-//W3C//DTD SVG 1.1//EN" "http://www.w3.org/Graphics/SVG/1.1/DTD/svg11.dtd"><svg xmlns="http://www.w3.org/2000/svg"><symbol id="icon-advanced-settings" viewBox="0 0 64 64">
    <circle cx="32" cy="32" r="4.167"/>
    <path d="M55.192 27.87l-5.825-1.092a17.98 17.98 0 0 0-1.392-3.371l3.37-4.927c.312-.456.248-1.142-.143-1.532l-4.155-4.156c-.391-.391-1.076-.454-1.532-.143l-4.928 3.372a18.023 18.023 0 0 0-3.473-1.42l-1.086-5.794c-.103-.543-.632-.983-1.185-.983h-5.877c-.553 0-1.082.44-1.185.983l-1.097 5.851c-1.165.356-2.282.82-3.334 1.392l-4.866-3.329c-.456-.312-1.142-.248-1.532.143l-4.156 4.156c-.391.391-.454 1.076-.143 1.532l3.35 4.896a18.055 18.055 0 0 0-1.371 3.331L8.808 27.87c-.542.103-.982.632-.982 1.185v5.877c0 .553.44 1.082.982 1.185l5.82 1.091a18.013 18.013 0 0 0 1.401 3.399l-3.312 4.842c-.312.456-.248 1.142.143 1.532l4.155 4.156c.391.391 1.076.454 1.532.143l4.84-3.313a18.086 18.086 0 0 0 3.299 1.375l1.097 5.852c.103.542.632.982 1.185.982h5.877c.553 0 1.082-.44 1.185-.982l1.086-5.796a18.174 18.174 0 0 0 3.438-1.401l4.902 3.354c.456.312 1.142.248 1.532-.143l4.155-4.154c.391-.391.454-1.076.143-1.532l-3.335-4.874a18.016 18.016 0 0 0 1.423-3.44l5.819-1.091c.542-.103.982-.632.982-1.185v-5.877c0-.553-.441-1.082-.983-1.185zM32 42.085c-5.568 0-10.083-4.515-10.083-10.086 0-5.567 4.515-10.083 10.083-10.083 5.57 0 10.086 4.516 10.086 10.083 0 5.571-4.517 10.086-10.086 10.086z"/>
</symbol><symbol id="icon-facebook" viewBox="0 0 10 19">
    <title>
        facebook
    </title>
    <path d="M9.766.157v2.946H8.014c-.64 0-1.071.134-1.295.402-.223.268-.335.67-.335 1.205v2.11h3.27l-.435 3.303H6.384v8.471H2.97v-8.47H.123V6.82H2.97V4.387c0-1.384.387-2.457 1.161-3.22C4.904.404 5.934.023 7.222.023c1.093 0 1.941.045 2.544.134z" fill-rule="evenodd"/>
</symbol><symbol id="icon-home" viewBox="0 0 32 32">
    <path d="M29.707 15.793l-13-13a.999.999 0 0 0-1.414 0l-13 13a.999.999 0 1 0 1.414 1.414L16 4.914l8.014 8.014c-.001.025-.014.047-.014.072v15H8V18a1 1 0 1 0-2 0v11a1 1 0 0 0 1 1h18a1 1 0 0 0 1-1V14.914l2.293 2.293a.997.997 0 0 0 1.414 0 .999.999 0 0 0 0-1.414z"/>
</symbol><symbol id="icon-search" viewBox="0 0 32 32">
    <title/>
    <path d="M19.427 21.427a8.5 8.5 0 1 1 2-2l5.585 5.585c.55.55.546 1.43 0 1.976l-.024.024a1.399 1.399 0 0 1-1.976 0l-5.585-5.585zM14.5 21a6.5 6.5 0 1 0 0-13 6.5 6.5 0 0 0 0 13z" fill-rule="evenodd"/>
</symbol></svg>