<?xml version="1.0" encoding="UTF-8"?><!DOCTYPE svg PUBLIC "-//W3C//DTD SVG 1.1//EN" "http://www.w3.org/Graphics/SVG/1.1/DTD/svg11.dtd"><svg xmlns="http://www.w3.org/2000/svg"><symbol id="icon-advanced-settings" viewBox="0 0 64 64">
    <circle cx="32" cy="32" r="4.167"/>
    <path d="M55.192 27.87l-5.825-1.092a17.98 17.98 0 0 0-1.392-3.371l3.37-4.927c.312-.456.248-1.142-.143-1.532l-4.155-4.156c-.391-.391-1.076-.454-1.532-.143l-4.928 3.372a18.023 18.023 0 0 0-3.473-1.42l-1.086-5.794c-.103-.543-.632-.983-1.185-.983h-5.877c-.553 0-1.082.44-1.185.983l-1.097 5.851c-1.165.356-2.282.82-3.334 1.392l-4.866-3.329c-.456-.312-1.142-.248-1.532.143l-4.156 4.156c-.391.391-.454 1.076-.143 1.532l3.35 4.896a18.055 18.055 0 0 0-1.371 3.331L8.808 27.87c-.542.103-.982.632-.982 1.185v5.877c0 .553.44 1.082.982 1.185l5.82 1.091a18.013 18.013 0 0 0 1.401 3.399l-3.312 4.842c-.312.456-.248 1.142.143 1.532l4.155 4.156c.391.391 1.076.454 1.532.143l4.84-3.313a18.086 18.086 0 0 0 3.299 1.375l1.097 5.852c.103.542.632.982 1.185.982h5.877c.553 0 1.082-.44 1.185-.982l1.086-5.796a18.174 18.174 0 0 0 3.438-1.401l4.902 3.354c.456.312 1.142.248 1.532-.143l4.155-4.154c.391-.391.454-1.076.143-1.532l-3.335-4.874a18.016 18.016 0 0 0 1.423-3.44l5.819-1.091c.542-.103.982-.632.982-1.185v-5.877c0-.553-.441-1.082-.983-1.185zM32 42.085c-5.568 0-10.083-4.515-10.083-10.086 0-5.567 4.515-10.083 10.083-10.083 5.57 0 10.086 4.516 10.086 10.083 0 5.571-4.517 10.086-10.086 10.086z"/>
</symbol><symbol id="icon-background-jobs" viewBox="0 0 32 32">
    <title/>
    <path d="M6 11v15.001c0 .56.451.999 1.007.999H21v-4.994c0-1.12.894-2.006 1.998-2.006H27v-9H6zm0-1V6.999C6 6.447 6.439 6 6.999 6H26c.552 0 .999.45.999 1.007V10H6zm15.5 18H7c-1.105 0-2-.902-2-2V7c0-1.104.902-2 2-2h19c1.104 0 2 .895 2 1.994V21l-6 7h-.5zm.5-1.5v-4.491c0-.557.45-1.009.997-1.009H26.7L22 26.5z" fill-rule="evenodd"/>
</symbol><symbol id="icon-collections" viewBox="0 0 96 96">
    <path d="M87 61.516l-39 19.5-39-19.5-9 4.5 48 24 48-24z"/>
    <path d="M87 44.531l-39 19.5-39-19.5-9 4.5 48 24 48-24z"/>
    <path d="M48 16.943L78.111 32 48 47.057 17.889 32 48 16.943M48 8L0 32l48 24 48-24L48 8z"/>
</symbol><symbol id="icon-home" viewBox="0 0 32 32">
    <path d="M29.707 15.793l-13-13a.999.999 0 0 0-1.414 0l-13 13a.999.999 0 1 0 1.414 1.414L16 4.914l8.014 8.014c-.001.025-.014.047-.014.072v15H8V18a1 1 0 1 0-2 0v11a1 1 0 0 0 1 1h18a1 1 0 0 0 1-1V14.914l2.293 2.293a.997.997 0 0 0 1.414 0 .999.999 0 0 0 0-1.414z"/>
</symbol><symbol id="icon-link" viewBox="0 0 24 24">
    <path d="M16.9 7.1c-.4-.4-1-.4-1.4 0l-8.4 8.4c-.4.4-.4 1 0 1.4.4.4 1 .4 1.4 0l8.4-8.4c.4-.4.4-1 0-1.4z"/>
    <path d="M8.5 22.5L12 19c1.4-1.4 1.8-3.5 1.1-5.3l-1.7 1.7c0 .8-.2 1.6-.9 2.3L7 21.2c-1.2 1.2-3.1 1.2-4.2 0-1.2-1.2-1.2-3.1 0-4.2l3.5-3.5c.6-.6 1.5-.9 2.3-.9l1.7-1.7c-1.8-.7-3.9-.4-5.3 1.1l-3.5 3.5c-1.9 1.9-1.9 5.1 0 7 1.9 2 5.1 2 7 0z"/>
    <path d="M13.4 6.4l3.5-3.5c1.2-1.2 3.1-1.2 4.2 0s1.2 3.1 0 4.2l-3.5 3.5c-.6.6-1.5.9-2.3.9l-1.7 1.7c1.8.7 3.9.3 5.3-1.1l3.5-3.5c1.9-1.9 1.9-5.1 0-7-1.9-1.9-5.1-1.9-7 0L12 5c-1.4 1.4-1.8 3.5-1.1 5.3l1.7-1.7c-.1-.8.2-1.6.8-2.2z"/>
</symbol><symbol id="icon-next" viewBox="0 0 512 512">
    <g>
        <path d="M383 266.5c-2.6 0-5.3-1-7.3-3L121.7 18c-4.2-4-4.3-10.7-.3-14.9 4-4.2 10.7-4.3 14.9-.3l254 245.5c4.2 4 4.3 10.7.3 14.9-2.1 2.3-4.8 3.3-7.6 3.3z"/>
        <path d="M129 512c-2.8 0-5.5-1.1-7.6-3.2-4-4.2-3.9-10.9.3-14.9l254-245.5c4.2-4 10.9-3.9 14.9.3s3.9 10.9-.3 14.9L136.3 509c-2 2-4.7 3-7.3 3z"/>
    </g>
</symbol><symbol id="icon-paperplane" viewBox="0 0 512 512">
    <title/>
    <g data-name="1">
        <path d="M291.48 449.94A15 15 0 0 1 278 441.5l-70.5-144.93-144.93-70.49a15 15 0 0 1 1-27.41L435.48 49.08A15 15 0 0 1 455 68.6L305.4 440.54a15 15 0 0 1-13.4 9.39zm-185.38-236l119.18 58a15 15 0 0 1 6.93 6.93l58 119.18L414 90z"/>
        <path d="M218.72 300.35a15 15 0 0 1-10.6-25.61L430.47 52.39a15 15 0 1 1 21.21 21.22L229.33 296a15 15 0 0 1-10.61 4.35z"/>
    </g>
</symbol><symbol id="icon-prev" viewBox="0 0 512 512">
    <g>
        <path d="M129 266.5c2.6 0 5.3-1 7.3-3L390.3 18c4.2-4 4.3-10.7.3-14.9-4-4.2-10.7-4.3-14.9-.3l-254 245.5c-4.2 4-4.3 10.7-.3 14.9 2.1 2.3 4.8 3.3 7.6 3.3z"/>
        <path d="M383 512c2.8 0 5.5-1.1 7.6-3.2 4-4.2 3.9-10.9-.3-14.9l-254-245.5c-4.2-4-10.9-3.9-14.9.3s-3.9 10.9.3 14.9l254 245.5c2 1.9 4.7 2.9 7.3 2.9z"/>
    </g>
</symbol><symbol id="icon-recent" viewBox="0 0 91 91">
    <path d="M31.651 45.648h29.596v3.4H31.651z"/>
    <path d="M31.651 35.402h29.596v3.4H31.651z"/>
    <path d="M31.651 55.766h5.101v3.4h-5.101z"/>
    <path d="M39.433 55.766h5.361v3.4h-5.361z"/>
    <path d="M47.475 55.766h5.1v3.4h-5.1z"/>
    <path d="M24.199 74.494H63.88a6.527 6.527 0 0 0 6.52-6.519v-46.2a1.7 1.7 0 0 0-1.7-1.7l-44.5-.001a1.7 1.7 0 0 0-1.7 1.7v51.021a1.699 1.699 0 0 0 1.699 1.699zm1.699-51.02L67 23.475v44.5c0 1.72-1.4 3.118-3.12 3.118H25.898V23.474z"/>
</symbol><symbol id="icon-search" viewBox="0 0 32 32">
    <title/>
    <path d="M19.427 21.427a8.5 8.5 0 1 1 2-2l5.585 5.585c.55.55.546 1.43 0 1.976l-.024.024a1.399 1.399 0 0 1-1.976 0l-5.585-5.585zM14.5 21a6.5 6.5 0 1 0 0-13 6.5 6.5 0 0 0 0 13z" fill-rule="evenodd"/>
</symbol><symbol id="icon-share" viewBox="0 0 64 64">
    <style>
        .st0{fill:#134563}
    </style>
    <g id="Icon-Share-Google" transform="translate(280 380)">
        <path class="st0" d="M-264.2-339.9c-4.4 0-7.9-3.5-7.9-7.9s3.5-7.9 7.9-7.9 7.9 3.5 7.9 7.9c0 4.3-3.5 7.9-7.9 7.9zm0-12.9c-2.7 0-4.9 2.2-4.9 4.9s2.2 4.9 4.9 4.9 4.9-2.2 4.9-4.9c0-2.6-2.2-4.9-4.9-4.9z" id="Fill-61"/>
        <path class="st0" d="M-232.1-356c-4.4 0-7.9-3.5-7.9-7.9s3.5-7.9 7.9-7.9 7.9 3.5 7.9 7.9-3.6 7.9-7.9 7.9zm0-12.8c-2.7 0-4.9 2.2-4.9 4.9s2.2 4.9 4.9 4.9 4.9-2.2 4.9-4.9-2.2-4.9-4.9-4.9z" id="Fill-62"/>
        <path class="st0" d="M-232.1-323.9c-4.4 0-7.9-3.5-7.9-7.9s3.5-7.9 7.9-7.9 7.9 3.5 7.9 7.9-3.6 7.9-7.9 7.9zm0-12.8c-2.7 0-4.9 2.2-4.9 4.9s2.2 4.9 4.9 4.9 4.9-2.2 4.9-4.9-2.2-4.9-4.9-4.9z" id="Fill-63"/>
        <path class="st0" id="Fill-64" d="M-238.6-333.2l-20.6-10.3 1.4-2.9 20.7 10.3-1.5 2.9"/>
        <path class="st0" id="Fill-65" d="M-257.8-349.3l-1.4-2.8 20.6-10.3 1.5 2.8-20.7 10.3"/>
    </g>
</symbol><symbol id="icon-speech" viewBox="0 0 24 24">
    <path d="M22.7 0H1C.4 0 0 .5 0 1.1v15.8c0 .6.4 1.1 1 1.1h17l6 6V1.1c0-.6-.6-1.1-1.3-1.1zM22 19.2L18.8 16H2V2h20v17.2z"/>
    <path d="M6 8h12v1H6z"/>
    <path d="M6 10h12v1H6z"/>
    <path d="M6 6h12v1H6z"/>
</symbol><symbol id="icon-star" viewBox="0 0 128 128">
    <path d="M124.446 50.429l-41.766-6.07L64 6.512 45.321 44.359l-41.767 6.07 30.224 29.46-7.135 41.6L64 101.848l37.359 19.641-7.135-41.6 30.222-29.46zM64 88.291l-21.42 11.26 4.091-23.852-17.329-16.891 23.948-3.479 1.396-2.829L64 33.627l10.711 21.701 23.948 3.479L81.33 75.699l4.092 23.854L64 88.291z"/>
</symbol><symbol id="icon-table" viewBox="0 0 32 32">
    <g>
        <path d="M12 0H2a2 2 0 0 0-2 2v10a2 2 0 0 0 2 2h10a2 2 0 0 0 2-2V2a2 2 0 0 0-2-2zm0 12H2V2h10v10z"/>
        <path d="M30 0H20a2 2 0 0 0-2 2v10a2 2 0 0 0 2 2h10a2 2 0 0 0 2-2V2a2 2 0 0 0-2-2zm0 12H20V2h10v10z"/>
        <path d="M30 18H20a2 2 0 0 0-2 2v10a2 2 0 0 0 2 2h10a2 2 0 0 0 2-2V20a2 2 0 0 0-2-2zm0 12H20V20h10v10z"/>
        <path d="M12 18H2a2 2 0 0 0-2 2v10a2 2 0 0 0 2 2h10a2 2 0 0 0 2-2V20a2 2 0 0 0-2-2zm0 12H2V20h10v10z"/>
    </g>
</symbol><symbol id="icon-tasks" viewBox="0 0 24 24">
    <path d="M23.7 15.5L18.4 12l5.3-3.5c.4-.3.4-.7 0-.9L12.7.3c-.4-.3-1-.3-1.4 0L.3 7.6c-.4.3-.4.7 0 .9L5.6 12 .3 15.5c-.4.3-.4.7 0 .9l11 7.3c.4.3 1 .3 1.4 0l11-7.3c.4-.2.4-.6 0-.9zM2.7 8L12 1.9 21.2 8 12 14.2 2.7 8zM12 22.2L2.7 16l4.4-2.9 4.1 2.7c.4.3 1 .3 1.4 0l4.1-2.7 4.4 2.9-9.1 6.2z"/>
</symbol><symbol id="icon-twitter" viewBox="0 0 48 48">
    <path d="M23.995 8.66c-8.47 0-15.34 6.87-15.34 15.34 0 8.47 6.87 15.34 15.34 15.34 8.48 0 15.35-6.87 15.35-15.34 0-8.47-6.87-15.34-15.35-15.34zm-1.16 19.62h5.54c1.04 0 1.87.84 1.87 1.87 0 1.03-.83 1.86-1.87 1.86h-5.54a5.08 5.08 0 0 1-5.08-5.08v-9.08c0-1.03.84-1.86 1.86-1.86 1.04 0 1.87.83 1.87 1.86v2.21h6.89c1.04 0 1.87.84 1.87 1.87 0 1.03-.83 1.86-1.87 1.86h-6.89v3.14c0 .75.6 1.35 1.35 1.35z"/>
</symbol></svg>